# xmcd
#
# Track frame offsets:
#	150
#	13870
#	39040
#	52402
#	66115
#	83197
#	100900
#	127295
#	156920
#	169665
#	187940
#
# Disc length: 3138 seconds
# Revision: 3
# Processed by: cddbd v1.5.2PL0 Copyright (c) Steve Scherf et al.
# Submitted via: dBpowerAMP V12.0
#
DISCID=920c400b
DTITLE=James Cotton - Seems Like Yesterday
DYEAR=1998
DGENRE=Blues
TTITLE0=I Got You (I Feel Good)
TTITLE1=There Is Something on Your Mind
TTITLE2=Money Honey
TTITLE3=I Don't Know
TTITLE4=Good Time Charlie
TTITLE5=It Ain't Right
TTITLE6=Stormy Monday
TTITLE7=Work Song
TTITLE8=Knock on Wood
TTITLE9=Dealing With the Devil
TTITLE10=Turn on Your Lovelight/Please Please Please
EXTD=
EXTT0=
EXTT1=
EXTT2=
EXTT3=
EXTT4=
EXTT5=
EXTT6=
EXTT7=
EXTT8=
EXTT9=
EXTT10=
PLAYORDER=
